<?xml version="1.0" standalone="no"?><!DOCTYPE svg PUBLIC "-//W3C//DTD SVG 1.1//EN" "http://www.w3.org/Graphics/SVG/1.1/DTD/svg11.dtd"><svg t="1711609961809" class="icon" viewBox="0 0 1024 1024" version="1.1" xmlns="http://www.w3.org/2000/svg" p-id="15911" xmlns:xlink="http://www.w3.org/1999/xlink" width="40" height="40"><path d="M760.082168 64.404846c32.212656 0 59.384505 23.987321 63.380516 55.951313l15.968694 127.748522c4.375657 35.004235-20.454868 66.928319-55.459103 71.302953a63.87682 63.87682 0 0 1-7.922437 0.493233H649.295969c-32.212656 0-59.385529-23.987321-63.380516-55.951313l-15.968693-127.748522c-4.375657-35.004235 20.453844-66.928319 55.45808-71.302953a63.87682 63.87682 0 0 1 7.922436-0.493233h126.754892z m31.153534 319.370794c32.547277 0 59.888995 24.472368 63.482847 56.8201l49.680492 447.118294c3.895727 35.060517-21.36868 66.641793-56.429197 70.537519-2.342348 0.25992-4.696975 0.390903-7.054672 0.390903h-126.961601c-32.547277 0-59.888995-24.472368-63.483869-56.8201l-49.67947-447.118293c-3.895727-35.060517 21.36868-66.641793 56.429197-70.53752a63.954591 63.954591 0 0 1 7.05365-0.390903h126.962623zM437.624059 64.404846c33.511231 0 61.324694 25.897833 63.712067 59.323106l54.748928 766.489089c2.51324 35.187407-23.974018 65.74947-59.160401 68.26271-1.514493 0.10847-3.032056 0.162706-4.550643 0.162705H182.453449c-35.276435 0-63.87375-28.597315-63.87375-63.873749 0-1.518586 0.054235-3.036149 0.162706-4.550643l54.748928-766.489088c2.387373-33.425274 30.200836-59.323107 63.712067-59.323107h200.420659z" p-id="15912" fill="#1296db"></path></svg>